<?xml version="1.0" encoding="UTF-8"?><svg id="Layer_1" xmlns="http://www.w3.org/2000/svg" viewBox="0 0 764.44 150.22"><defs><style>.cls-1{letter-spacing:-.01em;}.cls-2{fill:#1d1d1b;font-family:RalewayRoman-Medium, Raleway;font-size:48px;font-variation-settings:'wght' 500;font-weight:500;}.cls-3{letter-spacing:-.01em;}.cls-4{letter-spacing:-.02em;}.cls-5{fill:#010101;}.cls-6{letter-spacing:0em;}</style></defs><text class="cls-2" transform="translate(125.52 80.82)"><tspan x="0" y="0">Dylan</tspan><tspan class="cls-3" x="129.17" y="0">K</tspan><tspan x="159.74" y="0">-</tspan><tspan class="cls-4" x="180.05" y="0">S</tspan><tspan class="cls-1" x="208.46" y="0">y</tspan><tspan x="233.95" y="0">s</tspan><tspan class="cls-6" x="257.37" y="0">t</tspan><tspan x="273.93" y="0">ems</tspan></text><path class="cls-5" d="M52.55,.07c-.17,.04-.91,.33-1.64,.65-1.92,.83-6.45,2.72-7.49,3.13-3,1.16-5.17,1.98-6.1,2.3-.58,.2-1.88,.65-2.88,1-2.42,.85-7.17,2.34-10.2,3.21-6.18,1.77-11.99,3.14-19.53,4.61-1.15,.23-2.25,.46-2.43,.51-.47,.14-.93,.43-1.32,.81-.38,.38-.61,.75-.8,1.28l-.14,.37L0,41.51C0,57.78,0,65.51,.04,66.41c.25,6.16,1.3,11.94,3.22,17.8,4.04,12.31,11.79,23.31,22,31.23,7.25,5.62,15.47,9.62,24.3,11.82,2.47,.61,3.08,.74,3.66,.74s1.19-.13,3.66-.74c15.6-3.89,29.22-13.4,38.25-26.69,3.46-5.1,6.19-10.65,8.08-16.44,1.9-5.82,2.94-11.59,3.19-17.72,.04-.91,.05-8.63,.04-24.9l-.02-23.58-.14-.37c-.19-.53-.42-.89-.8-1.28-.38-.38-.85-.67-1.32-.81-.18-.06-1.28-.28-2.43-.51-7.69-1.49-13.43-2.85-19.76-4.68-3.21-.93-7.46-2.27-9.97-3.14-1-.35-2.3-.8-2.88-1-.58-.21-1.46-.53-1.95-.71s-1.8-.69-2.91-1.11c-1.86-.71-6.61-2.68-9.06-3.74-.56-.24-1.16-.47-1.34-.51-.4-.09-.94-.09-1.34,0Zm2.11,7.41c2.68,1.13,5.43,2.27,5.96,2.47,.29,.11,1.02,.39,1.62,.62s1.53,.58,2.06,.79c1.33,.51,1.73,.66,3,1.1,.6,.21,1.87,.65,2.83,.99,3.61,1.26,10.49,3.35,14.07,4.28,3.08,.8,4.45,1.15,5.62,1.42,.68,.16,1.57,.36,1.97,.46,1.09,.26,7.92,1.69,8.08,1.69,.05,0,.02,44.13-.03,45.19-.63,13.11-5.3,25.22-13.56,35.1-1.44,1.73-4.33,4.71-5.91,6.1-3.15,2.78-6.32,5.07-9.84,7.09-4.79,2.75-9.98,4.82-15.45,6.16-1.72,.43-1.8,.44-2.18,.36-.55-.11-2.71-.65-3.64-.92-8.05-2.29-15.44-6.18-21.74-11.46-2.42-2.03-5.35-4.95-7.35-7.34-5.04-6.03-8.79-12.96-11.05-20.45-1.45-4.78-2.26-9.53-2.5-14.65-.05-1.06-.08-45.19-.03-45.19,.15,0,7.01-1.43,7.98-1.66,.35-.09,1.37-.32,2.28-.54,1.42-.33,2.78-.68,6.02-1.52,3.12-.82,10.2-2.99,13.46-4.12,.96-.34,2.24-.78,2.83-.99,1.27-.44,1.66-.59,3-1.1,.54-.21,1.47-.56,2.06-.79,1.93-.73,2.12-.81,4.15-1.65,3.25-1.36,4.52-1.89,4.66-1.97,.07-.04,.14-.07,.16-.07,.02,0,.68,.27,1.47,.6Z"/></svg>