<?xml version="1.0" standalone="no"?>
<!DOCTYPE svg PUBLIC "-//W3C//DTD SVG 20010904//EN"
 "http://www.w3.org/TR/2001/REC-SVG-20010904/DTD/svg10.dtd">
<svg version="1.0" xmlns="http://www.w3.org/2000/svg"
 width="3000.000000pt" height="3000.000000pt" viewBox="0 0 3000.000000 3000.000000"
 preserveAspectRatio="xMidYMid meet">

<g transform="translate(0.000000,3000.000000) scale(0.100000,-0.100000)"
fill="#000000" stroke="none">
<path d="M14865 27635 c-33 -7 -179 -65 -325 -128 -379 -164 -1274 -538 -1480
-618 -592 -229 -1022 -391 -1205 -455 -115 -40 -372 -129 -570 -198 -479 -168
-1417 -463 -2015 -635 -1222 -350 -2369 -620 -3860 -910 -228 -45 -444 -90
-480 -101 -92 -28 -184 -84 -260 -160 -75 -76 -120 -148 -158 -252 l-27 -73
-3 -4660 c-2 -3215 0 -4741 8 -4920 50 -1218 257 -2360 636 -3518 798 -2433
2330 -4607 4348 -6171 1433 -1111 3056 -1900 4802 -2335 489 -121 609 -146
724 -146 115 0 235 25 724 146 3082 768 5774 2647 7558 5274 684 1007 1224
2105 1597 3248 375 1150 581 2290 631 3502 8 179 10 1705 8 4920 l-3 4660 -27
73 c-38 104 -83 176 -158 252 -76 76 -168 132 -260 160 -36 11 -252 56 -480
101 -1520 295 -2654 564 -3905 924 -634 183 -1475 448 -1970 621 -198 69 -454
158 -570 198 -115 41 -289 104 -385 141 -96 37 -355 136 -575 220 -367 141
-1306 529 -1790 740 -110 48 -229 93 -265 101 -80 17 -186 17 -265 -1z m417
-1464 c529 -223 1073 -448 1178 -489 58 -22 202 -77 320 -122 118 -45 302
-115 408 -156 262 -101 342 -130 592 -217 118 -42 370 -129 560 -196 713 -248
2072 -662 2780 -846 609 -158 880 -227 1110 -280 135 -31 310 -72 390 -91 215
-52 1565 -334 1596 -334 9 0 4 -8721 -6 -8930 -124 -2590 -1048 -4984 -2679
-6935 -285 -341 -856 -931 -1167 -1206 -622 -550 -1249 -1002 -1944 -1401
-946 -544 -1972 -953 -3053 -1217 -340 -84 -355 -86 -430 -72 -108 21 -535
128 -720 181 -1591 452 -3051 1221 -4296 2264 -479 401 -1058 979 -1452 1451
-996 1191 -1736 2561 -2184 4041 -286 945 -447 1883 -495 2894 -10 209 -15
8930 -6 8930 30 0 1385 283 1576 329 69 17 271 64 450 106 280 66 549 134
1190 301 616 162 2015 590 2660 815 190 67 442 154 560 196 250 86 329 116
592 217 106 41 290 111 408 156 382 145 419 160 820 327 642 268 893 374 920
389 14 7 28 13 32 14 4 0 135 -54 290 -119z"/>
</g>
</svg>
